<svg xmlns="http://www.w3.org/2000/svg">
  <defs>
    <!-- Icons go here -->
    <svg xmlns="http://www.w3.org/2000/svg">
      <defs>
        <symbol id="icon-dumbbell" viewBox="-5.0 -10.0 110.0 135.0">
          <g>
  <path d="m27.656 91.875-7.6562 7.6562c-0.625 0.625-1.7188 0.625-2.3438 0l-17.188-17.188c-0.625-0.625-0.625-1.7188 0-2.3438l7.6562-7.6562z"/>
  <path d="m44.219 89.688-5.1562 5.1562c-1.0938 1.0938-2.9688 1.0938-4.0625 0l-4.0625-4.0625-21.562-21.719-4.0625-4.0625c-0.46875-0.46875-0.78125-1.25-0.78125-2.0312s0.3125-1.4062 0.78125-2.0312l5.1562-5.1562c0.625-0.625 1.25-0.78125 2.0312-0.78125s1.4062 0.3125 2.0312 0.78125l29.844 29.844c0.9375 1.0938 0.9375 2.9688-0.15625 4.0625z"/>
  <path d="m72.5 35.625-36.875 36.875-8.4375-8.4375 36.875-36.875z"/>
  <path d="m94.844 39.062-5.1562 5.1562c-1.0938 1.0938-2.9688 1.0938-4.0625 0l-9.6875-9.6875v-0.15625h-0.15625l-10.625-10.625v-0.15625h-0.15625l-9.375-9.375c-1.0938-1.0938-1.0938-2.9688 0-4.0625l5.3125-5c0.625-0.625 1.25-0.78125 2.0312-0.78125s1.4062 0.3125 2.0312 0.78125l4.0625 4.0625 21.562 21.719 4.0625 4.0625c1.25 1.25 1.25 2.9688 0.15625 4.0625z"/>
  <path d="m100 18.75c0 0.46875-0.15625 0.78125-0.46875 1.0938l-7.6562 7.6562-19.531-19.375 7.6562-7.6562c0.3125-0.3125 0.78125-0.46875 1.25-0.46875s0.78125 0.15625 1.0938 0.46875l17.188 17.188c0.3125 0.3125 0.46875 0.78125 0.46875 1.0938z"/>
 </g>
        </symbol>

        <symbol id="icon-target" viewBox="-5.0 -10.0 110.0 135.0">
          <path d="m46.602 45.801c0.5 0 1 0.10156 1.5 0.10156 1.1016 0.19922 2.1016-0.5 2.3984-1.6016 0.30078-1.1016-0.5-2.1016-1.6016-2.3984-0.69922-0.19922-1.5-0.19922-2.3008-0.19922-6.1992 0-11.301 5.1016-11.301 11.301 0 6.1992 5.1016 11.301 11.301 11.301 6.2031-0.003907 11.402-4.9062 11.402-11.105 0-0.89844-0.10156-1.8008-0.30078-2.6016-0.30078-1.1016-1.3008-1.6992-2.3984-1.5-1.1016 0.30078-1.6992 1.3008-1.5 2.3984 0.10156 0.60156 0.19922 1.1016 0.19922 1.6992 0 4-3.3008 7.3008-7.3008 7.3008s-7.3008-3.3008-7.3008-7.3008c0-3.9961 3.2031-7.3945 7.2031-7.3945z"/>
 <path d="m60.398 34.898c0.60156-0.89844 0.30078-2.1992-0.60156-2.8008-3.8984-2.5-8.5-3.8008-13.199-3.8008-13.699 0-24.801 11.102-24.801 24.801 0.003906 13.703 11.102 24.902 24.805 24.902 13.699 0 24.801-11.102 24.801-24.801 0-4.6016-1.3008-9.1016-3.6016-13-0.60156-0.89844-1.8008-1.1992-2.8008-0.69922-0.89844 0.60156-1.1992 1.8008-0.69922 2.8008 2 3.3008 3.1016 7 3.1016 10.898 0 11.5-9.3008 20.801-20.801 20.801s-20.801-9.3008-20.801-20.801 9.3008-20.801 20.801-20.801c3.8984 0 7.6992 1.1016 11.102 3.1992 0.89844 0.50391 2.0977 0.20312 2.6953-0.69922z"/>
 <path d="m46.602 91.5c21.102 0 38.301-17.199 38.301-38.301 0-5-1-9.8984-2.8008-14.5-0.39844-1-1.6016-1.5-2.6016-1.1016-1 0.39844-1.5 1.6016-1.1016 2.6016 1.6992 4.1016 2.5 8.5 2.5 13 0 18.898-15.398 34.301-34.301 34.301-18.898 0-34.297-15.398-34.297-34.301 0-18.898 15.398-34.301 34.301-34.301 4.6016 0 9.1016 0.89844 13.398 2.6992 1 0.39844 2.1992 0 2.6016-1.1016 0.39844-1 0-2.1992-1.1016-2.6016-4.6992-2-9.6992-3-14.898-3-21.102 0.003907-38.301 17.105-38.301 38.305s17.199 38.301 38.301 38.301z"/>
 <path d="m89.801 20.801-9.6992-0.69922-0.69922-9.8008c-0.10156-0.80078-0.60156-1.3984-1.3008-1.6992-0.69922-0.30078-1.5-0.10156-2.1016 0.39844l-11.898 11.602c-0.39844 0.39844-0.60156 0.89844-0.60156 1.3984v11.398l-18.301 18.402c-0.80078 0.80078-0.80078 2 0 2.8008 0.39844 0.39844 0.89844 0.60156 1.3984 0.60156s1-0.19922 1.3984-0.60156l18.301-18.301h12.301c0.5 0 1.1016-0.19922 1.3984-0.60156l11-11.5c0.5-0.60156 0.69922-1.3984 0.39844-2.1016-0.09375-0.69922-0.79297-1.1992-1.5938-1.2969zm-12 11.5h-10.301v-9.3984l8.1992-8 0.5 7.3008c0.10156 1 0.89844 1.8008 1.8984 1.8008l7.1992 0.5z"/>
      </defs>
    </svg>

  </defs>
</svg>